<?xml version="1.0" encoding="UTF-8"?>
<svg width="100px" height="50px" viewBox="0 0 100 50" version="1.1" xmlns="http://www.w3.org/2000/svg" xmlns:xlink="http://www.w3.org/1999/xlink">
    <!-- Generator: Sketch 52.2 (67145) - http://www.bohemiancoding.com/sketch -->
    <title>Custom Preset</title>
    <desc>Created with Sketch.</desc>
    <g id="Custom-Preset" stroke="none" stroke-width="1" fill="none" fill-rule="evenodd">
        <g id="Group-2-Copy" transform="translate(1.000000, 17.000000)" fill="#2D2D2D">
            <path d="M8.95934959,17.7534247 L0,17.7534247 L0,0.98630137 L8.95934959,0.98630137 L8.95934959,3.899331 L3.29857289,3.899331 L3.29857289,7.5807582 L8.56564896,7.5807582 L8.56564896,10.4937878 L3.29857289,10.4937878 L3.29857289,14.8174578 L8.95934959,14.8174578 L8.95934959,17.7534247 Z M18.7025531,4.68493151 C19.1449122,4.68493151 19.5123502,4.71935213 19.804878,4.7881944 L19.5587278,8.06965976 C19.2947393,7.99316834 18.973677,7.95492321 18.5955313,7.95492321 C17.5538468,7.95492321 16.7422726,8.24176172 16.1607844,8.81544734 C15.5792961,9.38913296 15.2885564,10.1922808 15.2885564,11.2249149 L15.2885564,17.7534247 L12.0243902,17.7534247 L12.0243902,4.92587826 L14.4965948,4.92587826 L14.978193,7.08292542 L15.1387258,7.08292542 C15.5097367,6.36390611 16.0109506,5.78449232 16.6423827,5.34466667 C17.2738147,4.90484103 17.9605313,4.68493151 18.7025531,4.68493151 Z M25.553888,18 C24.1315757,18 23.0143192,17.4175185 22.202085,16.2525381 C21.3898508,15.0875576 20.9837398,13.4733606 20.9837398,11.4098985 C20.9837398,9.31597938 21.3970706,7.68465051 22.2237445,6.51586294 C23.0504184,5.34707537 24.1893342,4.76269036 25.6405259,4.76269036 C27.1639163,4.76269036 28.3262962,5.38704959 29.1277006,6.6357868 L29.235998,6.6357868 C29.0699412,5.68400539 28.9869141,4.83502911 28.9869141,4.08883249 L28.9869141,0 L32.300813,0 L32.300813,17.7715736 L29.766655,17.7715736 L29.1277006,16.1154822 L28.9869141,16.1154822 C28.2360487,17.3718337 27.0917181,18 25.553888,18 Z M26.6997819,15.2876712 C27.5560946,15.2876712 28.183682,15.0283022 28.5825627,14.5095562 C28.9814434,13.9908103 29.1991778,13.1097183 29.2357724,11.8662538 L29.2357724,11.4886392 C29.2357724,10.1154882 29.0326756,9.13141139 28.6264759,8.5363793 C28.2202763,7.9413472 27.5597544,7.64383562 26.6448903,7.64383562 C25.8983612,7.64383562 25.3183461,7.97376834 24.9048276,8.63364367 C24.491309,9.29351901 24.2845528,10.2528032 24.2845528,11.5115249 C24.2845528,12.7702466 24.4931387,13.7142738 24.9103167,14.3436346 C25.3274947,14.9729955 25.9239772,15.2876712 26.6997819,15.2876712 Z M40.7996353,7.39726027 C40.0871732,7.39726027 39.5289639,7.61144434 39.1249905,8.0398189 C38.7210172,8.46819346 38.4896541,9.07591898 38.4308943,9.8630137 L43.1463415,9.8630137 C43.1316515,9.07591898 42.9149782,8.46819346 42.4963149,8.0398189 C42.0776516,7.61144434 41.5120974,7.39726027 40.7996353,7.39726027 Z M41.2011051,18 C39.2233542,18 37.6778018,17.4294146 36.5644013,16.2882267 C35.4510008,15.1470389 34.8943089,13.5310185 34.8943089,11.4401172 C34.8943089,9.28794414 35.4088827,7.6240559 36.4380456,6.44840261 C37.4672086,5.27274933 38.8900691,4.68493151 40.7066698,4.68493151 C42.4426956,4.68493151 43.7941383,5.20190484 44.7610388,6.23586701 C45.7279392,7.26982918 46.2113821,8.69820735 46.2113821,10.5210444 L46.2113821,12.2213292 L38.2894309,12.2213292 C38.3260559,13.2169965 38.6080643,13.9943712 39.1354645,14.5534767 C39.6628647,15.1125821 40.402679,15.3921307 41.3549294,15.3921307 C42.0947547,15.3921307 42.794282,15.3117126 43.4535322,15.150874 C44.1127825,14.9900355 44.8013225,14.7334635 45.5191728,14.3811505 L45.5191728,17.0924155 C44.9331725,17.3987747 44.3068942,17.6266259 43.6403189,17.775976 C42.9737436,17.9253261 42.1606805,18 41.2011051,18 Z M53.9918699,16.0273973 C53.9918699,15.3775955 54.1636452,14.8863836 54.5072009,14.553747 C54.8507567,14.2211103 55.3508136,14.0547945 56.0073868,14.0547945 C56.6410562,14.0547945 57.1315701,14.2249782 57.4789431,14.5653505 C57.8263161,14.9057229 58,15.3930669 58,16.0273973 C58,16.6385204 57.8244075,17.1200627 57.4732172,17.4720387 C57.1220269,17.8240147 56.6334216,18 56.0073868,18 C55.3660827,18 54.869843,17.8278825 54.5186527,17.4836422 C54.1674624,17.139402 53.9918699,16.6539919 53.9918699,16.0273973 Z" id="Erde-.-Copy-3"></path>
            <path d="M68.8612182,8.91116751 L67,3.94543147 L68.3937291,3.94543147 L69.3374454,6.77474619 C69.4423033,7.13303902 69.5078385,7.47207962 69.5340529,7.79187817 L69.5602673,7.79187817 C69.5748309,7.50761279 69.6403661,7.16857219 69.7568748,6.77474619 L70.6962221,3.94543147 L72.0899512,3.94543147 L70.228733,8.91116751 L68.8612182,8.91116751 Z M72.7322025,2.66180203 C72.7322025,2.22059847 72.9739546,2 73.4574659,2 C73.9409773,2 74.1827294,2.22059847 74.1827294,2.66180203 C74.1827294,2.87203997 74.1222914,3.03563816 74.0014135,3.15260152 C73.8805357,3.26956488 73.6992216,3.32804569 73.4574659,3.32804569 C72.9739546,3.32804569 72.7322025,3.10596669 72.7322025,2.66180203 Z M74.1215626,8.91116751 L72.7890003,8.91116751 L72.7890003,3.94543147 L74.1215626,3.94543147 L74.1215626,8.91116751 Z M78.9275251,7.43654822 C78.9275251,7.94585703 78.7534927,8.33375501 78.4054228,8.60025381 C78.0573528,8.8667526 77.5367121,9 76.843485,9 C76.4881332,9 76.185215,8.97557131 75.9347212,8.9267132 C75.6842273,8.87785509 75.4497569,8.80604954 75.231303,8.71129442 L75.231303,7.59200508 C75.4788841,7.71044898 75.7577728,7.80964427 76.0679774,7.88959391 C76.378182,7.96954355 76.6512453,8.00951777 76.8871755,8.00951777 C77.3706869,8.00951777 77.612439,7.86738721 77.612439,7.58312183 C77.612439,7.47652231 77.5803995,7.3899115 77.5163197,7.3232868 C77.4522399,7.2566621 77.3415582,7.18115524 77.1842714,7.09676396 C77.0269846,7.01237267 76.8172719,6.91391765 76.5551272,6.80139594 C76.1793865,6.64149666 75.9034105,6.493444 75.727191,6.3572335 C75.5509714,6.22102301 75.4228137,6.06482745 75.342714,5.88864213 C75.2626142,5.71245682 75.2225649,5.49555966 75.2225649,5.23794416 C75.2225649,4.7967406 75.3907719,4.45547921 75.727191,4.21414975 C76.06361,3.97282028 76.5405606,3.85215736 77.1580571,3.85215736 C77.7464263,3.85215736 78.318767,3.98244371 78.8750964,4.2430203 L78.4731432,5.22017766 C78.2284747,5.11357815 77.9998297,5.02622707 77.7872012,4.95812183 C77.5745727,4.89001658 77.3575784,4.85596447 77.1362118,4.85596447 C76.7429947,4.85596447 76.5463891,4.96404291 76.5463891,5.18020305 C76.5463891,5.30160805 76.6097398,5.40672544 76.7364431,5.49555838 C76.8631464,5.58439131 77.1405787,5.71615818 77.5687484,5.89086294 C77.9503146,6.04780112 78.2299314,6.19437326 78.4076073,6.33058376 C78.5852832,6.46679425 78.7163536,6.62373008 78.8008224,6.80139594 C78.8852913,6.9790618 78.9275251,7.19077711 78.9275251,7.43654822 Z M83.0693909,8.91116751 L82.8116166,8.23604061 L82.7766641,8.23604061 C82.5523847,8.52326709 82.3215552,8.72239792 82.0841686,8.83343909 C81.846782,8.94448025 81.5373102,9 81.155744,9 C80.6867963,9 80.3176146,8.86379155 80.0481881,8.59137056 C79.7787616,8.31894957 79.6440504,7.93105159 79.6440504,7.42766497 C79.6440504,6.90058958 79.8253644,6.51195134 80.1879979,6.26173858 C80.5506315,6.01152582 81.0974863,5.87309658 81.8285788,5.8464467 L82.6761758,5.81979695 L82.6761758,5.60215736 C82.6761758,5.09877075 82.422773,4.84708122 81.9159599,4.84708122 C81.5256555,4.84708122 81.0669092,4.96700388 80.539707,5.20685279 L80.0984323,4.29187817 C80.6605871,3.9928073 81.2838996,3.84327411 81.9683886,3.84327411 C82.6237504,3.84327411 83.1261869,3.98836572 83.4757132,4.2785533 C83.8252395,4.56874088 84,5.00993782 84,5.60215736 L84,8.91116751 L83.0693909,8.91116751 Z M82.6761758,6.61040609 L82.1606271,6.62817259 C81.7732354,6.64001698 81.4848806,6.71108226 81.2955538,6.84137056 C81.1062271,6.97165886 81.0115652,7.17004943 81.0115652,7.43654822 C81.0115652,7.81852983 81.2271031,8.00951777 81.6581856,8.00951777 C81.9669338,8.00951777 82.213783,7.91920564 82.3987407,7.73857868 C82.5836983,7.55795172 82.6761758,7.3181064 82.6761758,7.01903553 L82.6761758,6.61040609 Z" id="visa-service-copy-5"></path>
            <path d="M70.7388707,16.4365482 C70.7388707,16.945857 70.5632455,17.333755 70.2119898,17.6002538 C69.860734,17.8667526 69.335328,18 68.6357559,18 C68.2771518,18 67.971461,17.9755713 67.7186744,17.9267132 C67.4658879,17.8778551 67.2292715,17.8060495 67.0088181,17.7112944 L67.0088181,16.5920051 C67.2586653,16.710449 67.5401065,16.8096443 67.8531503,16.8895939 C68.1661941,16.9695435 68.4417567,17.0095178 68.6798464,17.0095178 C69.1677832,17.0095178 69.411748,16.8673872 69.411748,16.5831218 C69.411748,16.4765223 69.3794153,16.3899115 69.314749,16.3232868 C69.2500826,16.2566621 69.1383879,16.1811552 68.9796615,16.096764 C68.8209351,16.0123727 68.609303,15.9139177 68.3447589,15.8013959 C67.9655791,15.6414967 67.6870772,15.493444 67.5092448,15.3572335 C67.3314124,15.221023 67.2020817,15.0648274 67.1212488,14.8886421 C67.0404158,14.7124568 67,14.4955597 67,14.2379442 C67,13.7967406 67.1697466,13.4554792 67.5092448,13.2141497 C67.848743,12.9728203 68.330059,12.8521574 68.9532072,12.8521574 C69.5469617,12.8521574 70.1245409,12.9824437 70.6859622,13.2430203 L70.28033,14.2201777 C70.0334222,14.1135781 69.8026844,14.0262271 69.5881098,13.9581218 C69.3735352,13.8900166 69.1545548,13.8559645 68.931162,13.8559645 C68.5343459,13.8559645 68.3359408,13.9640429 68.3359408,14.180203 C68.3359408,14.3016081 68.3998714,14.4067254 68.5277343,14.4955584 C68.6555973,14.5843913 68.9355689,14.7161582 69.3676575,14.8908629 C69.7527161,15.0478011 70.0348922,15.1943733 70.2141943,15.3305838 C70.3934964,15.4667943 70.5257664,15.6237301 70.6110084,15.8013959 C70.6962504,15.9790618 70.7388707,16.1907771 70.7388707,16.4365482 Z M73.8296117,13.8159898 C73.544492,13.8159898 73.3211026,13.9070422 73.1594368,14.0891497 C72.997771,14.2712573 72.9051819,14.5296092 72.8816669,14.8642132 L74.7687384,14.8642132 C74.7628597,14.5296092 74.6761493,14.2712573 74.5086048,14.0891497 C74.3410602,13.9070422 74.1147314,13.8159898 73.8296117,13.8159898 Z M74.0192007,18 C73.2255685,18 72.6053689,17.7794015 72.1585834,17.338198 C71.7117979,16.8969944 71.4884085,16.2722122 71.4884085,15.4638325 C71.4884085,14.631764 71.6948967,13.9884752 72.1078794,13.5339467 C72.5208621,13.0794182 73.0918278,12.8521574 73.8207936,12.8521574 C74.5174263,12.8521574 75.0597335,13.0520285 75.4477315,13.4517766 C75.8357294,13.8515248 76.0297255,14.4037613 76.0297255,15.1085025 L76.0297255,15.7658629 L72.8508036,15.7658629 C72.8655005,16.1508056 72.9786648,16.4513526 73.1903001,16.6675127 C73.4019353,16.8836728 73.6988081,16.9917513 74.0809273,16.9917513 C74.3778045,16.9917513 74.658511,16.9606602 74.923055,16.8984772 C75.1875991,16.8362941 75.4638965,16.7370988 75.7519556,16.6008883 L75.7519556,17.6491117 C75.5168053,17.7675556 75.2654923,17.8556469 74.9980088,17.9133883 C74.7305254,17.9711297 74.4042593,18 74.0192007,18 Z M79.8744133,12.8521574 C80.0566548,12.8521574 80.2080305,12.8654821 80.328545,12.892132 L80.227137,14.1624365 C80.11838,14.1328256 79.9861099,14.1180203 79.8303229,14.1180203 C79.4011736,14.1180203 79.0668243,14.2290598 78.827265,14.4511421 C78.5877056,14.6732245 78.4679277,14.9841351 78.4679277,15.3838832 L78.4679277,17.9111675 L77.1231688,17.9111675 L77.1231688,12.9454315 L78.1416584,12.9454315 L78.3400654,13.7804569 L78.4062011,13.7804569 C78.5590488,13.5021137 78.765537,13.2778139 79.025672,13.1075508 C79.285807,12.9372876 79.568718,12.8521574 79.8744133,12.8521574 Z M82.3963874,17.9111675 L80.518134,12.9454315 L81.9246195,12.9454315 L82.8769734,15.7747462 C82.982791,16.133039 83.0489261,16.4720796 83.0753805,16.7918782 L83.1018347,16.7918782 C83.1165316,16.5076128 83.1826666,16.1685722 83.3002418,15.7747462 L84.2481866,12.9454315 L85.6546722,12.9454315 L83.7764187,17.9111675 L82.3963874,17.9111675 Z M86.3028019,11.661802 C86.3028019,11.2205985 86.5467666,11 87.0347035,11 C87.5226403,11 87.766605,11.2205985 87.766605,11.661802 C87.766605,11.87204 87.7056138,12.0356382 87.5836296,12.1526015 C87.4616454,12.2695649 87.2786719,12.3280457 87.0347035,12.3280457 C86.5467666,12.3280457 86.3028019,12.1059667 86.3028019,11.661802 Z M87.7048784,17.9111675 L86.3601195,17.9111675 L86.3601195,12.9454315 L87.7048784,12.9454315 L87.7048784,17.9111675 Z M91.1174797,18 C89.5831242,18 88.8159579,17.1516582 88.8159579,15.4549492 C88.8159579,14.6110364 89.0246506,13.966267 89.4420424,13.5206218 C89.8594341,13.0749766 90.4575887,12.8521574 91.236524,12.8521574 C91.8067634,12.8521574 92.3182076,12.9646774 92.7708719,13.1897208 L92.3740577,14.2379442 C92.1624225,14.1520723 91.9654871,14.0817473 91.7832456,14.026967 C91.6010042,13.9721867 91.4187654,13.944797 91.236524,13.944797 C90.5369519,13.944797 90.1871711,14.445215 90.1871711,15.446066 C90.1871711,16.417306 90.5369519,16.9029188 91.236524,16.9029188 C91.4951893,16.9029188 91.734745,16.8681264 91.9551984,16.7985406 C92.1756518,16.7289548 92.3961019,16.6201361 92.6165553,16.4720812 L92.6165553,17.6313452 C92.3990412,17.7705168 92.179326,17.866751 91.9574029,17.9200508 C91.7354799,17.9733505 91.4555083,18 91.1174797,18 Z M95.7998862,13.8159898 C95.5147665,13.8159898 95.2913771,13.9070422 95.1297113,14.0891497 C94.9680455,14.2712573 94.8754564,14.5296092 94.8519414,14.8642132 L96.7390129,14.8642132 C96.7331342,14.5296092 96.6464238,14.2712573 96.4788792,14.0891497 C96.3113347,13.9070422 96.0850059,13.8159898 95.7998862,13.8159898 Z M95.9894752,18 C95.195843,18 94.5756434,17.7794015 94.1288579,17.338198 C93.6820724,16.8969944 93.458683,16.2722122 93.458683,15.4638325 C93.458683,14.631764 93.6651712,13.9884752 94.0781539,13.5339467 C94.4911366,13.0794182 95.0621023,12.8521574 95.7910681,12.8521574 C96.4877008,12.8521574 97.030008,13.0520285 97.418006,13.4517766 C97.8060039,13.8515248 98,14.4037613 98,15.1085025 L98,15.7658629 L94.8210781,15.7658629 C94.835775,16.1508056 94.9489393,16.4513526 95.1605746,16.6675127 C95.3722098,16.8836728 95.6690826,16.9917513 96.0512018,16.9917513 C96.348079,16.9917513 96.6287855,16.9606602 96.8933295,16.8984772 C97.1578736,16.8362941 97.434171,16.7370988 97.7222301,16.6008883 L97.7222301,17.6491117 C97.4870798,17.7675556 97.2357668,17.8556469 96.9682833,17.9133883 C96.7007999,17.9711297 96.3745338,18 95.9894752,18 Z" id="visa-service-copy-6"></path>
        </g>
    </g>
</svg>